<svg width="227" height="43" viewBox="0 0 227 43" fill="none" xmlns="http://www.w3.org/2000/svg">
<path d="M62.2183 43H40.1383L38.6023 37.496H24.3303L22.7943 43H0.39425L14.0263 0.311996H48.7783L62.2183 43ZM36.0423 25.848L31.6263 12.344L27.0183 25.848H36.0423ZM106.331 43H65.6913V0.311996H87.6433V27.896H106.331V43ZM133.959 43H112.007V0.311996H133.959V43ZM199.721 43H174.889L164.393 29.368V43H142.441V0.311996H164.393V16.76L174.889 0.311996H200.873L182.953 22.264L199.721 43ZM226.771 43H204.819V0.311996H226.771V43Z" fill="white"/>
</svg>
