<svg width="349" height="336" viewBox="0 0 349 336" fill="none" xmlns="http://www.w3.org/2000/svg">
<path d="M115.218 191H93.1383L91.6023 185.496H77.3303L75.7943 191H53.3942L67.0263 148.312H101.778L115.218 191ZM89.0423 173.848L84.6263 160.344L80.0183 173.848H89.0423ZM159.331 191H118.691V148.312H140.643V175.896H159.331V191ZM186.959 191H165.007V148.312H186.959V191ZM252.721 191H227.889L217.393 177.368V191H195.441V148.312H217.393V164.76L227.889 148.312H253.873L235.953 170.264L252.721 191ZM279.771 191H257.819V148.312H279.771V191Z" fill="white"/>
<path d="M31.0015 60.096C29.6362 60.096 28.5908 59.712 27.8655 58.944C27.1402 58.176 26.7775 57.1413 26.7775 55.84V39.744H27.8335V55.68C27.8335 56.8107 28.1108 57.6747 28.6655 58.272C29.2202 58.8693 30.0308 59.168 31.0975 59.168C32.1855 59.168 33.0815 58.8373 33.7855 58.176L34.3295 58.944C33.9242 59.328 33.4228 59.616 32.8255 59.808C32.2282 60 31.6202 60.096 31.0015 60.096ZM23.6415 44.32V43.392H33.3055V44.32H23.6415ZM44.6678 60.096C43.1104 60.096 41.7131 59.744 40.4758 59.04C39.2598 58.3147 38.2891 57.312 37.5638 56.032C36.8598 54.752 36.5078 53.3013 36.5078 51.68C36.5078 50.0373 36.8598 48.5867 37.5638 47.328C38.2891 46.0693 39.2598 45.0773 40.4758 44.352C41.7131 43.6267 43.1104 43.264 44.6678 43.264C46.2251 43.264 47.6224 43.6267 48.8598 44.352C50.0971 45.0773 51.0678 46.0693 51.7718 47.328C52.4758 48.5867 52.8278 50.0373 52.8278 51.68C52.8278 53.3013 52.4758 54.752 51.7718 56.032C51.0678 57.312 50.0971 58.3147 48.8598 59.04C47.6224 59.744 46.2251 60.096 44.6678 60.096ZM44.6678 59.136C46.0331 59.136 47.2491 58.8267 48.3158 58.208C49.4038 57.568 50.2464 56.6827 50.8438 55.552C51.4624 54.4213 51.7718 53.1307 51.7718 51.68C51.7718 50.208 51.4624 48.9173 50.8438 47.808C50.2464 46.6773 49.4038 45.8027 48.3158 45.184C47.2491 44.5653 46.0331 44.256 44.6678 44.256C43.3238 44.256 42.1184 44.5653 41.0518 45.184C39.9851 45.8027 39.1318 46.6773 38.4918 47.808C37.8731 48.9173 37.5638 50.208 37.5638 51.68C37.5638 53.1307 37.8731 54.4213 38.4918 55.552C39.1318 56.6827 39.9851 57.568 41.0518 58.208C42.1184 58.8267 43.3238 59.136 44.6678 59.136ZM64.74 60.096C63.3107 60.096 62.084 59.84 61.06 59.328C60.036 58.7947 59.2467 58.016 58.692 56.992C58.1373 55.9467 57.86 54.6667 57.86 53.152V43.392H58.916V53.088C58.916 55.072 59.428 56.576 60.452 57.6C61.476 58.624 62.916 59.136 64.772 59.136C66.0947 59.136 67.236 58.8587 68.196 58.304C69.1773 57.728 69.924 56.928 70.436 55.904C70.948 54.88 71.204 53.696 71.204 52.352V43.392H72.26V60H71.236V55.36L71.364 55.648C70.8947 57.0133 70.084 58.1013 68.932 58.912C67.78 59.7013 66.3827 60.096 64.74 60.096ZM85.7325 60.096C84.1538 60.096 82.7352 59.744 81.4765 59.04C80.2392 58.3147 79.2578 57.3227 78.5325 56.064C77.8285 54.784 77.4765 53.3227 77.4765 51.68C77.4765 50.0373 77.8285 48.5867 78.5325 47.328C79.2578 46.048 80.2392 45.056 81.4765 44.352C82.7352 43.6267 84.1538 43.264 85.7325 43.264C86.9912 43.264 88.1538 43.5093 89.2205 44C90.2872 44.4693 91.1725 45.1733 91.8765 46.112L91.0765 46.784C90.4578 45.9093 89.6792 45.2693 88.7405 44.864C87.8232 44.4587 86.8205 44.256 85.7325 44.256C84.3672 44.256 83.1405 44.5653 82.0525 45.184C80.9645 45.8027 80.1005 46.6773 79.4605 47.808C78.8418 48.9173 78.5325 50.208 78.5325 51.68C78.5325 53.152 78.8418 54.4533 79.4605 55.584C80.1005 56.6933 80.9645 57.568 82.0525 58.208C83.1405 58.8267 84.3672 59.136 85.7325 59.136C86.8205 59.136 87.8232 58.9333 88.7405 58.528C89.6792 58.1013 90.4578 57.4613 91.0765 56.608L91.8765 57.248C91.1725 58.208 90.2872 58.9227 89.2205 59.392C88.1538 59.8613 86.9912 60.096 85.7325 60.096ZM104.486 43.264C105.851 43.264 107.024 43.5307 108.006 44.064C109.008 44.5973 109.787 45.3867 110.342 46.432C110.896 47.456 111.174 48.7253 111.174 50.24V60H110.118V50.304C110.118 48.32 109.616 46.816 108.614 45.792C107.611 44.768 106.203 44.256 104.39 44.256C103.003 44.256 101.808 44.5333 100.806 45.088C99.8031 45.6427 99.0351 46.432 98.5018 47.456C97.9684 48.48 97.7018 49.6747 97.7018 51.04V60H96.6458V36.256H97.7018V48.064L97.5418 47.776C98.0538 46.3893 98.8964 45.2907 100.07 44.48C101.264 43.6693 102.736 43.264 104.486 43.264ZM130.689 60.096C129.324 60.096 128.278 59.712 127.553 58.944C126.828 58.176 126.465 57.1413 126.465 55.84V39.744H127.521V55.68C127.521 56.8107 127.798 57.6747 128.353 58.272C128.908 58.8693 129.718 59.168 130.785 59.168C131.873 59.168 132.769 58.8373 133.473 58.176L134.017 58.944C133.612 59.328 133.11 59.616 132.513 59.808C131.916 60 131.308 60.096 130.689 60.096ZM123.329 44.32V43.392H132.993V44.32H123.329ZM146.548 43.264C147.914 43.264 149.087 43.5307 150.068 44.064C151.071 44.5973 151.85 45.3867 152.404 46.432C152.959 47.456 153.236 48.7253 153.236 50.24V60H152.18V50.304C152.18 48.32 151.679 46.816 150.676 45.792C149.674 44.768 148.266 44.256 146.452 44.256C145.066 44.256 143.871 44.5333 142.868 45.088C141.866 45.6427 141.098 46.432 140.564 47.456C140.031 48.48 139.764 49.6747 139.764 51.04V60H138.708V36.256H139.764V48.064L139.604 47.776C140.116 46.3893 140.959 45.2907 142.132 44.48C143.327 43.6693 144.799 43.264 146.548 43.264ZM166.674 60.096C165.031 60.096 163.58 59.744 162.322 59.04C161.063 58.3147 160.071 57.312 159.346 56.032C158.62 54.752 158.258 53.3013 158.258 51.68C158.258 50.0373 158.588 48.5867 159.25 47.328C159.932 46.0693 160.86 45.0773 162.034 44.352C163.228 43.6267 164.572 43.264 166.066 43.264C167.538 43.264 168.86 43.616 170.034 44.32C171.228 45.024 172.156 46.0053 172.818 47.264C173.5 48.5013 173.842 49.9307 173.842 51.552C173.842 51.5947 173.842 51.648 173.842 51.712C173.842 51.7547 173.842 51.7973 173.842 51.84H158.962V50.976H173.266L172.85 51.488C172.85 50.1013 172.551 48.864 171.954 47.776C171.378 46.6667 170.578 45.8027 169.554 45.184C168.53 44.544 167.367 44.224 166.066 44.224C164.764 44.224 163.602 44.544 162.578 45.184C161.554 45.8027 160.743 46.6667 160.146 47.776C159.57 48.864 159.282 50.112 159.282 51.52V51.712C159.282 53.1627 159.602 54.4533 160.242 55.584C160.882 56.6933 161.756 57.568 162.866 58.208C163.975 58.8267 165.244 59.136 166.674 59.136C167.762 59.136 168.786 58.9333 169.746 58.528C170.727 58.1227 171.538 57.504 172.178 56.672L172.85 57.376C172.103 58.272 171.186 58.9547 170.098 59.424C169.031 59.872 167.89 60.096 166.674 60.096ZM191.146 60.096C189.78 60.096 188.5 59.8933 187.306 59.488C186.111 59.0613 185.204 58.528 184.586 57.888L185.098 57.056C185.716 57.6107 186.559 58.1013 187.626 58.528C188.692 58.9547 189.876 59.168 191.178 59.168C193.034 59.168 194.367 58.848 195.178 58.208C196.01 57.568 196.426 56.736 196.426 55.712C196.426 54.9653 196.223 54.3787 195.818 53.952C195.412 53.5253 194.879 53.1947 194.218 52.96C193.556 52.7253 192.82 52.544 192.01 52.416C191.22 52.2667 190.42 52.1067 189.61 51.936C188.799 51.744 188.063 51.4987 187.402 51.2C186.74 50.88 186.207 50.4427 185.802 49.888C185.396 49.3333 185.194 48.5973 185.194 47.68C185.194 46.8907 185.407 46.1653 185.834 45.504C186.282 44.8427 186.954 44.3093 187.85 43.904C188.746 43.4773 189.887 43.264 191.274 43.264C192.298 43.264 193.322 43.424 194.346 43.744C195.391 44.0427 196.223 44.448 196.842 44.96L196.298 45.792C195.636 45.2587 194.858 44.864 193.962 44.608C193.087 44.352 192.18 44.224 191.242 44.224C189.514 44.224 188.255 44.5547 187.466 45.216C186.676 45.8773 186.282 46.688 186.282 47.648C186.282 48.416 186.484 49.0347 186.89 49.504C187.295 49.952 187.828 50.2933 188.49 50.528C189.151 50.7627 189.876 50.9547 190.666 51.104C191.476 51.2533 192.276 51.4133 193.066 51.584C193.876 51.7547 194.612 51.9893 195.274 52.288C195.935 52.5867 196.468 53.0027 196.874 53.536C197.279 54.0693 197.482 54.7947 197.482 55.712C197.482 56.5653 197.236 57.3333 196.746 58.016C196.276 58.6773 195.572 59.1893 194.634 59.552C193.716 59.9147 192.554 60.096 191.146 60.096ZM208.545 60.096C206.966 60.096 205.548 59.744 204.289 59.04C203.052 58.3147 202.07 57.3227 201.345 56.064C200.641 54.784 200.289 53.3227 200.289 51.68C200.289 50.0373 200.641 48.5867 201.345 47.328C202.07 46.048 203.052 45.056 204.289 44.352C205.548 43.6267 206.966 43.264 208.545 43.264C209.804 43.264 210.966 43.5093 212.033 44C213.1 44.4693 213.985 45.1733 214.689 46.112L213.889 46.784C213.27 45.9093 212.492 45.2693 211.553 44.864C210.636 44.4587 209.633 44.256 208.545 44.256C207.18 44.256 205.953 44.5653 204.865 45.184C203.777 45.8027 202.913 46.6773 202.273 47.808C201.654 48.9173 201.345 50.208 201.345 51.68C201.345 53.152 201.654 54.4533 202.273 55.584C202.913 56.6933 203.777 57.568 204.865 58.208C205.953 58.8267 207.18 59.136 208.545 59.136C209.633 59.136 210.636 58.9333 211.553 58.528C212.492 58.1013 213.27 57.4613 213.889 56.608L214.689 57.248C213.985 58.208 213.1 58.9227 212.033 59.392C210.966 59.8613 209.804 60.096 208.545 60.096ZM219.74 60V43.392H220.764V47.968L220.668 47.68C221.116 46.2933 221.894 45.216 223.004 44.448C224.134 43.6587 225.542 43.264 227.228 43.264V44.32C227.185 44.32 227.132 44.32 227.068 44.32C227.025 44.32 226.982 44.32 226.94 44.32C225.02 44.32 223.516 44.928 222.428 46.144C221.34 47.36 220.796 49.0347 220.796 51.168V60H219.74ZM238.236 60.096C236.594 60.096 235.143 59.744 233.884 59.04C232.626 58.3147 231.634 57.312 230.908 56.032C230.183 54.752 229.82 53.3013 229.82 51.68C229.82 50.0373 230.151 48.5867 230.812 47.328C231.495 46.0693 232.423 45.0773 233.596 44.352C234.791 43.6267 236.135 43.264 237.628 43.264C239.1 43.264 240.423 43.616 241.596 44.32C242.791 45.024 243.719 46.0053 244.38 47.264C245.063 48.5013 245.404 49.9307 245.404 51.552C245.404 51.5947 245.404 51.648 245.404 51.712C245.404 51.7547 245.404 51.7973 245.404 51.84H230.524V50.976H244.828L244.412 51.488C244.412 50.1013 244.114 48.864 243.516 47.776C242.94 46.6667 242.14 45.8027 241.116 45.184C240.092 44.544 238.93 44.224 237.628 44.224C236.327 44.224 235.164 44.544 234.14 45.184C233.116 45.8027 232.306 46.6667 231.708 47.776C231.132 48.864 230.844 50.112 230.844 51.52V51.712C230.844 53.1627 231.164 54.4533 231.804 55.584C232.444 56.6933 233.319 57.568 234.428 58.208C235.538 58.8267 236.807 59.136 238.236 59.136C239.324 59.136 240.348 58.9333 241.308 58.528C242.29 58.1227 243.1 57.504 243.74 56.672L244.412 57.376C243.666 58.272 242.748 58.9547 241.66 59.424C240.594 59.872 239.452 60.096 238.236 60.096ZM257.143 60.096C255.5 60.096 254.049 59.744 252.791 59.04C251.532 58.3147 250.54 57.312 249.815 56.032C249.089 54.752 248.727 53.3013 248.727 51.68C248.727 50.0373 249.057 48.5867 249.719 47.328C250.401 46.0693 251.329 45.0773 252.503 44.352C253.697 43.6267 255.041 43.264 256.535 43.264C258.007 43.264 259.329 43.616 260.503 44.32C261.697 45.024 262.625 46.0053 263.287 47.264C263.969 48.5013 264.311 49.9307 264.311 51.552C264.311 51.5947 264.311 51.648 264.311 51.712C264.311 51.7547 264.311 51.7973 264.311 51.84H249.431V50.976H263.735L263.319 51.488C263.319 50.1013 263.02 48.864 262.423 47.776C261.847 46.6667 261.047 45.8027 260.023 45.184C258.999 44.544 257.836 44.224 256.535 44.224C255.233 44.224 254.071 44.544 253.047 45.184C252.023 45.8027 251.212 46.6667 250.615 47.776C250.039 48.864 249.751 50.112 249.751 51.52V51.712C249.751 53.1627 250.071 54.4533 250.711 55.584C251.351 56.6933 252.225 57.568 253.335 58.208C254.444 58.8267 255.713 59.136 257.143 59.136C258.231 59.136 259.255 58.9333 260.215 58.528C261.196 58.1227 262.007 57.504 262.647 56.672L263.319 57.376C262.572 58.272 261.655 58.9547 260.567 59.424C259.5 59.872 258.359 60.096 257.143 60.096ZM277.361 43.264C278.726 43.264 279.899 43.5307 280.881 44.064C281.883 44.5973 282.662 45.3867 283.217 46.432C283.771 47.456 284.049 48.7253 284.049 50.24V60H282.993V50.304C282.993 48.32 282.491 46.816 281.489 45.792C280.486 44.768 279.078 44.256 277.265 44.256C275.878 44.256 274.683 44.5333 273.681 45.088C272.678 45.6427 271.91 46.432 271.377 47.456C270.843 48.48 270.577 49.6747 270.577 51.04V60H269.521V43.392H270.545V48.064L270.417 47.776C270.929 46.3893 271.771 45.2907 272.945 44.48C274.139 43.6693 275.611 43.264 277.361 43.264ZM303.564 60.096C302.199 60.096 301.153 59.712 300.428 58.944C299.703 58.176 299.34 57.1413 299.34 55.84V39.744H300.396V55.68C300.396 56.8107 300.673 57.6747 301.228 58.272C301.783 58.8693 302.593 59.168 303.66 59.168C304.748 59.168 305.644 58.8373 306.348 58.176L306.892 58.944C306.487 59.328 305.985 59.616 305.388 59.808C304.791 60 304.183 60.096 303.564 60.096ZM296.204 44.32V43.392H305.868V44.32H296.204ZM317.23 60.096C315.673 60.096 314.276 59.744 313.038 59.04C311.822 58.3147 310.852 57.312 310.126 56.032C309.422 54.752 309.07 53.3013 309.07 51.68C309.07 50.0373 309.422 48.5867 310.126 47.328C310.852 46.0693 311.822 45.0773 313.038 44.352C314.276 43.6267 315.673 43.264 317.23 43.264C318.788 43.264 320.185 43.6267 321.422 44.352C322.66 45.0773 323.63 46.0693 324.334 47.328C325.038 48.5867 325.39 50.0373 325.39 51.68C325.39 53.3013 325.038 54.752 324.334 56.032C323.63 57.312 322.66 58.3147 321.422 59.04C320.185 59.744 318.788 60.096 317.23 60.096ZM317.23 59.136C318.596 59.136 319.812 58.8267 320.878 58.208C321.966 57.568 322.809 56.6827 323.406 55.552C324.025 54.4213 324.334 53.1307 324.334 51.68C324.334 50.208 324.025 48.9173 323.406 47.808C322.809 46.6773 321.966 45.8027 320.878 45.184C319.812 44.5653 318.596 44.256 317.23 44.256C315.886 44.256 314.681 44.5653 313.614 45.184C312.548 45.8027 311.694 46.6773 311.054 47.808C310.436 48.9173 310.126 50.208 310.126 51.68C310.126 53.1307 310.436 54.4213 311.054 55.552C311.694 56.6827 312.548 57.568 313.614 58.208C314.681 58.8267 315.886 59.136 317.23 59.136ZM35.0208 99.096C33.6554 99.096 32.3754 98.8933 31.1808 98.488C29.9861 98.0613 29.0794 97.528 28.4608 96.888L28.9728 96.056C29.5914 96.6107 30.4341 97.1013 31.5008 97.528C32.5674 97.9547 33.7514 98.168 35.0528 98.168C36.9088 98.168 38.2421 97.848 39.0528 97.208C39.8848 96.568 40.3008 95.736 40.3008 94.712C40.3008 93.9653 40.0981 93.3787 39.6928 92.952C39.2874 92.5253 38.7541 92.1947 38.0928 91.96C37.4314 91.7253 36.6954 91.544 35.8848 91.416C35.0954 91.2667 34.2954 91.1067 33.4848 90.936C32.6741 90.744 31.9381 90.4987 31.2768 90.2C30.6154 89.88 30.0821 89.4427 29.6768 88.888C29.2714 88.3333 29.0688 87.5973 29.0688 86.68C29.0688 85.8907 29.2821 85.1653 29.7088 84.504C30.1568 83.8427 30.8288 83.3093 31.7248 82.904C32.6208 82.4773 33.7621 82.264 35.1488 82.264C36.1728 82.264 37.1968 82.424 38.2208 82.744C39.2661 83.0427 40.0981 83.448 40.7168 83.96L40.1728 84.792C39.5114 84.2587 38.7328 83.864 37.8368 83.608C36.9621 83.352 36.0554 83.224 35.1168 83.224C33.3888 83.224 32.1301 83.5547 31.3408 84.216C30.5514 84.8773 30.1568 85.688 30.1568 86.648C30.1568 87.416 30.3594 88.0347 30.7648 88.504C31.1701 88.952 31.7034 89.2933 32.3648 89.528C33.0261 89.7627 33.7514 89.9547 34.5408 90.104C35.3514 90.2533 36.1514 90.4133 36.9408 90.584C37.7514 90.7547 38.4874 90.9893 39.1488 91.288C39.8101 91.5867 40.3434 92.0027 40.7488 92.536C41.1541 93.0693 41.3568 93.7947 41.3568 94.712C41.3568 95.5653 41.1114 96.3333 40.6208 97.016C40.1514 97.6773 39.4474 98.1893 38.5088 98.552C37.5914 98.9147 36.4288 99.096 35.0208 99.096ZM50.564 99.096C49.1987 99.096 48.1533 98.712 47.428 97.944C46.7027 97.176 46.34 96.1413 46.34 94.84V78.744H47.396V94.68C47.396 95.8107 47.6733 96.6747 48.228 97.272C48.7827 97.8693 49.5933 98.168 50.66 98.168C51.748 98.168 52.644 97.8373 53.348 97.176L53.892 97.944C53.4867 98.328 52.9853 98.616 52.388 98.808C51.7907 99 51.1827 99.096 50.564 99.096ZM43.204 83.32V82.392H52.868V83.32H43.204ZM69.1433 99V95.128L69.1113 94.552V88.248C69.1113 86.6053 68.6739 85.3573 67.7993 84.504C66.9246 83.6507 65.6553 83.224 63.9913 83.224C62.7753 83.224 61.6659 83.4373 60.6633 83.864C59.6606 84.2693 58.7966 84.8027 58.0713 85.464L57.4953 84.696C58.2846 83.9493 59.2553 83.3627 60.4073 82.936C61.5593 82.488 62.7646 82.264 64.0233 82.264C66.0073 82.264 67.5219 82.776 68.5673 83.8C69.6339 84.8027 70.1673 86.2853 70.1673 88.248V99H69.1433ZM62.9673 99.096C61.7086 99.096 60.6313 98.904 59.7352 98.52C58.8606 98.136 58.1886 97.592 57.7193 96.888C57.2499 96.1627 57.0153 95.3413 57.0153 94.424C57.0153 93.6133 57.2073 92.8667 57.5913 92.184C57.9753 91.48 58.6046 90.9253 59.4793 90.52C60.3753 90.0933 61.5699 89.88 63.0633 89.88H69.4953V90.744H63.0633C61.2499 90.744 59.9593 91.0853 59.1913 91.768C58.4446 92.4507 58.0713 93.3147 58.0713 94.36C58.0713 95.5333 58.5086 96.472 59.3833 97.176C60.2579 97.8587 61.4739 98.2 63.0312 98.2C64.5673 98.2 65.8366 97.8587 66.8393 97.176C67.8419 96.472 68.5993 95.48 69.1113 94.2L69.4633 94.904C69.0366 96.1627 68.2686 97.176 67.1593 97.944C66.0499 98.712 64.6526 99.096 62.9673 99.096ZM77.0833 99V82.392H78.1073V86.968L78.0113 86.68C78.4593 85.2933 79.2379 84.216 80.3473 83.448C81.4779 82.6587 82.8859 82.264 84.5713 82.264V83.32C84.5286 83.32 84.4753 83.32 84.4113 83.32C84.3686 83.32 84.3259 83.32 84.2833 83.32C82.3633 83.32 80.8593 83.928 79.7713 85.144C78.6833 86.36 78.1393 88.0347 78.1393 90.168V99H77.0833ZM94.4703 99.096C93.1049 99.096 92.0596 98.712 91.3343 97.944C90.6089 97.176 90.2463 96.1413 90.2463 94.84V78.744H91.3023V94.68C91.3023 95.8107 91.5796 96.6747 92.1343 97.272C92.6889 97.8693 93.4996 98.168 94.5663 98.168C95.6543 98.168 96.5503 97.8373 97.2543 97.176L97.7983 97.944C97.3929 98.328 96.8916 98.616 96.2943 98.808C95.6969 99 95.0889 99.096 94.4703 99.096ZM87.1103 83.32V82.392H96.7743V83.32H87.1103ZM106.359 102.2L116.919 72.056H117.911L107.351 102.2H106.359ZM134.92 99.096C133.341 99.096 131.923 98.744 130.664 98.04C129.427 97.3147 128.445 96.3227 127.72 95.064C127.016 93.784 126.664 92.3227 126.664 90.68C126.664 89.0373 127.016 87.5867 127.72 86.328C128.445 85.048 129.427 84.056 130.664 83.352C131.923 82.6267 133.341 82.264 134.92 82.264C136.179 82.264 137.341 82.5093 138.408 83C139.475 83.4693 140.36 84.1733 141.064 85.112L140.264 85.784C139.645 84.9093 138.867 84.2693 137.928 83.864C137.011 83.4587 136.008 83.256 134.92 83.256C133.555 83.256 132.328 83.5653 131.24 84.184C130.152 84.8027 129.288 85.6773 128.648 86.808C128.029 87.9173 127.72 89.208 127.72 90.68C127.72 92.152 128.029 93.4533 128.648 94.584C129.288 95.6933 130.152 96.568 131.24 97.208C132.328 97.8267 133.555 98.136 134.92 98.136C136.008 98.136 137.011 97.9333 137.928 97.528C138.867 97.1013 139.645 96.4613 140.264 95.608L141.064 96.248C140.36 97.208 139.475 97.9227 138.408 98.392C137.341 98.8613 136.179 99.096 134.92 99.096ZM153.673 82.264C155.039 82.264 156.212 82.5307 157.193 83.064C158.196 83.5973 158.975 84.3867 159.529 85.432C160.084 86.456 160.361 87.7253 160.361 89.24V99H159.305V89.304C159.305 87.32 158.804 85.816 157.801 84.792C156.799 83.768 155.391 83.256 153.577 83.256C152.191 83.256 150.996 83.5333 149.993 84.088C148.991 84.6427 148.223 85.432 147.689 86.456C147.156 87.48 146.889 88.6747 146.889 90.04V99H145.833V75.256H146.889V87.064L146.729 86.776C147.241 85.3893 148.084 84.2907 149.257 83.48C150.452 82.6693 151.924 82.264 153.673 82.264ZM177.831 99V95.128L177.799 94.552V88.248C177.799 86.6053 177.361 85.3573 176.487 84.504C175.612 83.6507 174.343 83.224 172.679 83.224C171.463 83.224 170.353 83.4373 169.351 83.864C168.348 84.2693 167.484 84.8027 166.759 85.464L166.183 84.696C166.972 83.9493 167.943 83.3627 169.095 82.936C170.247 82.488 171.452 82.264 172.711 82.264C174.695 82.264 176.209 82.776 177.255 83.8C178.321 84.8027 178.855 86.2853 178.855 88.248V99H177.831ZM171.655 99.096C170.396 99.096 169.319 98.904 168.423 98.52C167.548 98.136 166.876 97.592 166.407 96.888C165.937 96.1627 165.703 95.3413 165.703 94.424C165.703 93.6133 165.895 92.8667 166.279 92.184C166.663 91.48 167.292 90.9253 168.167 90.52C169.063 90.0933 170.257 89.88 171.751 89.88H178.183V90.744H171.751C169.937 90.744 168.647 91.0853 167.879 91.768C167.132 92.4507 166.759 93.3147 166.759 94.36C166.759 95.5333 167.196 96.472 168.071 97.176C168.945 97.8587 170.161 98.2 171.719 98.2C173.255 98.2 174.524 97.8587 175.527 97.176C176.529 96.472 177.287 95.48 177.799 94.2L178.151 94.904C177.724 96.1627 176.956 97.176 175.847 97.944C174.737 98.712 173.34 99.096 171.655 99.096ZM193.611 82.264C194.976 82.264 196.149 82.5307 197.131 83.064C198.133 83.5973 198.912 84.3867 199.467 85.432C200.021 86.456 200.299 87.7253 200.299 89.24V99H199.243V89.304C199.243 87.32 198.741 85.816 197.739 84.792C196.736 83.768 195.328 83.256 193.515 83.256C192.128 83.256 190.933 83.5333 189.931 84.088C188.928 84.6427 188.16 85.432 187.627 86.456C187.093 87.48 186.827 88.6747 186.827 90.04V99H185.771V82.392H186.795V87.064L186.667 86.776C187.179 85.3893 188.021 84.2907 189.195 83.48C190.389 82.6693 191.861 82.264 193.611 82.264ZM213.992 105.304C212.499 105.304 211.08 105.059 209.736 104.568C208.414 104.099 207.347 103.448 206.536 102.616L207.144 101.816C207.998 102.627 209.011 103.245 210.184 103.672C211.358 104.12 212.616 104.344 213.96 104.344C216.286 104.344 218.003 103.789 219.112 102.68C220.222 101.592 220.776 99.8747 220.776 97.528V92.504L221.096 90.328L220.808 88.152V82.392H221.832V97.4C221.832 100.109 221.182 102.104 219.88 103.384C218.579 104.664 216.616 105.304 213.992 105.304ZM213.544 98.424C211.987 98.424 210.59 98.0827 209.352 97.4C208.115 96.696 207.134 95.736 206.408 94.52C205.683 93.304 205.32 91.9067 205.32 90.328C205.32 88.7493 205.683 87.352 206.408 86.136C207.134 84.92 208.115 83.9707 209.352 83.288C210.59 82.6053 211.987 82.264 213.544 82.264C215.08 82.264 216.446 82.6053 217.64 83.288C218.835 83.9493 219.784 84.888 220.488 86.104C221.192 87.2987 221.544 88.7067 221.544 90.328C221.544 91.9493 221.192 93.368 220.488 94.584C219.784 95.8 218.835 96.7493 217.64 97.432C216.446 98.0933 215.08 98.424 213.544 98.424ZM213.576 97.464C214.984 97.464 216.222 97.1653 217.288 96.568C218.376 95.9707 219.23 95.128 219.848 94.04C220.467 92.952 220.776 91.7147 220.776 90.328C220.776 88.92 220.467 87.6933 219.848 86.648C219.23 85.5813 218.376 84.7493 217.288 84.152C216.222 83.5547 214.984 83.256 213.576 83.256C212.211 83.256 210.984 83.5547 209.896 84.152C208.808 84.7493 207.944 85.5813 207.304 86.648C206.686 87.6933 206.376 88.92 206.376 90.328C206.376 91.7147 206.686 92.952 207.304 94.04C207.944 95.128 208.808 95.9707 209.896 96.568C210.984 97.1653 212.211 97.464 213.576 97.464ZM235.455 99.096C233.812 99.096 232.362 98.744 231.103 98.04C229.844 97.3147 228.852 96.312 228.127 95.032C227.402 93.752 227.039 92.3013 227.039 90.68C227.039 89.0373 227.37 87.5867 228.031 86.328C228.714 85.0693 229.642 84.0773 230.815 83.352C232.01 82.6267 233.354 82.264 234.847 82.264C236.319 82.264 237.642 82.616 238.815 83.32C240.01 84.024 240.938 85.0053 241.599 86.264C242.282 87.5013 242.623 88.9307 242.623 90.552C242.623 90.5947 242.623 90.648 242.623 90.712C242.623 90.7547 242.623 90.7973 242.623 90.84H227.743V89.976H242.047L241.631 90.488C241.631 89.1013 241.332 87.864 240.735 86.776C240.159 85.6667 239.359 84.8027 238.335 84.184C237.311 83.544 236.148 83.224 234.847 83.224C233.546 83.224 232.383 83.544 231.359 84.184C230.335 84.8027 229.524 85.6667 228.927 86.776C228.351 87.864 228.063 89.112 228.063 90.52V90.712C228.063 92.1627 228.383 93.4533 229.023 94.584C229.663 95.6933 230.538 96.568 231.647 97.208C232.756 97.8267 234.026 98.136 235.455 98.136C236.543 98.136 237.567 97.9333 238.527 97.528C239.508 97.1227 240.319 96.504 240.959 95.672L241.631 96.376C240.884 97.272 239.967 97.9547 238.879 98.424C237.812 98.872 236.671 99.096 235.455 99.096ZM262.295 99.096C260.716 99.096 259.298 98.744 258.039 98.04C256.802 97.3147 255.82 96.3227 255.095 95.064C254.391 93.784 254.039 92.3227 254.039 90.68C254.039 89.0373 254.391 87.5867 255.095 86.328C255.82 85.048 256.802 84.056 258.039 83.352C259.298 82.6267 260.716 82.264 262.295 82.264C263.554 82.264 264.716 82.5093 265.783 83C266.85 83.4693 267.735 84.1733 268.439 85.112L267.639 85.784C267.02 84.9093 266.242 84.2693 265.303 83.864C264.386 83.4587 263.383 83.256 262.295 83.256C260.93 83.256 259.703 83.5653 258.615 84.184C257.527 84.8027 256.663 85.6773 256.023 86.808C255.404 87.9173 255.095 89.208 255.095 90.68C255.095 92.152 255.404 93.4533 256.023 94.584C256.663 95.6933 257.527 96.568 258.615 97.208C259.703 97.8267 260.93 98.136 262.295 98.136C263.383 98.136 264.386 97.9333 265.303 97.528C266.242 97.1013 267.02 96.4613 267.639 95.608L268.439 96.248C267.735 97.208 266.85 97.9227 265.783 98.392C264.716 98.8613 263.554 99.096 262.295 99.096ZM273.208 99V75.256H274.264V99H273.208ZM281.365 99V82.392H282.421V99H281.365ZM281.877 78.04C281.599 78.04 281.354 77.9333 281.141 77.72C280.927 77.5067 280.821 77.272 280.821 77.016C280.821 76.7173 280.927 76.472 281.141 76.28C281.354 76.0667 281.599 75.96 281.877 75.96C282.175 75.96 282.421 76.0667 282.613 76.28C282.826 76.472 282.933 76.7067 282.933 76.984C282.933 77.2613 282.826 77.5067 282.613 77.72C282.421 77.9333 282.175 78.04 281.877 78.04ZM297.713 99.096C296.219 99.096 294.875 98.7547 293.681 98.072C292.486 97.368 291.537 96.3867 290.833 95.128C290.15 93.848 289.809 92.376 289.809 90.712C289.809 89.0267 290.15 87.5547 290.833 86.296C291.537 85.016 292.486 84.024 293.681 83.32C294.875 82.616 296.219 82.264 297.713 82.264C299.249 82.264 300.625 82.6267 301.841 83.352C303.078 84.0773 304.049 85.0693 304.753 86.328C305.478 87.5867 305.841 89.048 305.841 90.712C305.841 92.3547 305.478 93.8053 304.753 95.064C304.049 96.3227 303.078 97.3147 301.841 98.04C300.625 98.744 299.249 99.096 297.713 99.096ZM289.521 105.208V82.392H290.545V88.216L290.257 90.744L290.577 93.272V105.208H289.521ZM297.681 98.136C299.025 98.136 300.23 97.8267 301.297 97.208C302.385 96.5893 303.238 95.7147 303.857 94.584C304.475 93.4533 304.785 92.1627 304.785 90.712C304.785 89.2187 304.475 87.9173 303.857 86.808C303.238 85.6987 302.385 84.8347 301.297 84.216C300.23 83.576 299.025 83.256 297.681 83.256C296.315 83.256 295.099 83.576 294.033 84.216C292.966 84.8347 292.123 85.6987 291.505 86.808C290.886 87.9173 290.577 89.2187 290.577 90.712C290.577 92.1627 290.886 93.4533 291.505 94.584C292.123 95.7147 292.966 96.5893 294.033 97.208C295.099 97.8267 296.315 98.136 297.681 98.136ZM315.052 99.096C313.687 99.096 312.407 98.8933 311.212 98.488C310.017 98.0613 309.111 97.528 308.492 96.888L309.004 96.056C309.623 96.6107 310.465 97.1013 311.532 97.528C312.599 97.9547 313.783 98.168 315.084 98.168C316.94 98.168 318.273 97.848 319.084 97.208C319.916 96.568 320.332 95.736 320.332 94.712C320.332 93.9653 320.129 93.3787 319.724 92.952C319.319 92.5253 318.785 92.1947 318.124 91.96C317.463 91.7253 316.727 91.544 315.916 91.416C315.127 91.2667 314.327 91.1067 313.516 90.936C312.705 90.744 311.969 90.4987 311.308 90.2C310.647 89.88 310.113 89.4427 309.708 88.888C309.303 88.3333 309.1 87.5973 309.1 86.68C309.1 85.8907 309.313 85.1653 309.74 84.504C310.188 83.8427 310.86 83.3093 311.756 82.904C312.652 82.4773 313.793 82.264 315.18 82.264C316.204 82.264 317.228 82.424 318.252 82.744C319.297 83.0427 320.129 83.448 320.748 83.96L320.204 84.792C319.543 84.2587 318.764 83.864 317.868 83.608C316.993 83.352 316.087 83.224 315.148 83.224C313.42 83.224 312.161 83.5547 311.372 84.216C310.583 84.8773 310.188 85.688 310.188 86.648C310.188 87.416 310.391 88.0347 310.796 88.504C311.201 88.952 311.735 89.2933 312.396 89.528C313.057 89.7627 313.783 89.9547 314.572 90.104C315.383 90.2533 316.183 90.4133 316.972 90.584C317.783 90.7547 318.519 90.9893 319.18 91.288C319.841 91.5867 320.375 92.0027 320.78 92.536C321.185 93.0693 321.388 93.7947 321.388 94.712C321.388 95.5653 321.143 96.3333 320.652 97.016C320.183 97.6773 319.479 98.1893 318.54 98.552C317.623 98.9147 316.46 99.096 315.052 99.096Z" fill="white"/>
<path d="M21.7638 259.096C20.1851 259.096 18.7664 258.744 17.5078 258.04C16.2704 257.315 15.2891 256.323 14.5638 255.064C13.8598 253.784 13.5078 252.323 13.5078 250.68C13.5078 249.037 13.8598 247.587 14.5638 246.328C15.2891 245.048 16.2704 244.056 17.5078 243.352C18.7664 242.627 20.1851 242.264 21.7638 242.264C23.0224 242.264 24.1851 242.509 25.2518 243C26.3184 243.469 27.2038 244.173 27.9078 245.112L27.1078 245.784C26.4891 244.909 25.7104 244.269 24.7718 243.864C23.8544 243.459 22.8518 243.256 21.7638 243.256C20.3984 243.256 19.1718 243.565 18.0838 244.184C16.9958 244.803 16.1318 245.677 15.4918 246.808C14.8731 247.917 14.5638 249.208 14.5638 250.68C14.5638 252.152 14.8731 253.453 15.4918 254.584C16.1318 255.693 16.9958 256.568 18.0838 257.208C19.1718 257.827 20.3984 258.136 21.7638 258.136C22.8518 258.136 23.8544 257.933 24.7718 257.528C25.7104 257.101 26.4891 256.461 27.1078 255.608L27.9078 256.248C27.2038 257.208 26.3184 257.923 25.2518 258.392C24.1851 258.861 23.0224 259.096 21.7638 259.096ZM32.677 259V235.256H33.733V259H32.677ZM40.8333 259V242.392H41.8893V259H40.8333ZM41.3453 238.04C41.0679 238.04 40.8226 237.933 40.6093 237.72C40.3959 237.507 40.2893 237.272 40.2893 237.016C40.2893 236.717 40.3959 236.472 40.6093 236.28C40.8226 236.067 41.0679 235.96 41.3453 235.96C41.6439 235.96 41.8893 236.067 42.0813 236.28C42.2946 236.472 42.4013 236.707 42.4013 236.984C42.4013 237.261 42.2946 237.507 42.0813 237.72C41.8893 237.933 41.6439 238.04 41.3453 238.04ZM55.3575 259.096C53.7788 259.096 52.3602 258.744 51.1015 258.04C49.8642 257.315 48.8828 256.323 48.1575 255.064C47.4535 253.784 47.1015 252.323 47.1015 250.68C47.1015 249.037 47.4535 247.587 48.1575 246.328C48.8828 245.048 49.8642 244.056 51.1015 243.352C52.3602 242.627 53.7788 242.264 55.3575 242.264C56.6162 242.264 57.7788 242.509 58.8455 243C59.9122 243.469 60.7975 244.173 61.5015 245.112L60.7015 245.784C60.0828 244.909 59.3042 244.269 58.3655 243.864C57.4482 243.459 56.4455 243.256 55.3575 243.256C53.9922 243.256 52.7655 243.565 51.6775 244.184C50.5895 244.803 49.7255 245.677 49.0855 246.808C48.4668 247.917 48.1575 249.208 48.1575 250.68C48.1575 252.152 48.4668 253.453 49.0855 254.584C49.7255 255.693 50.5895 256.568 51.6775 257.208C52.7655 257.827 53.9922 258.136 55.3575 258.136C56.4455 258.136 57.4482 257.933 58.3655 257.528C59.3042 257.101 60.0828 256.461 60.7015 255.608L61.5015 256.248C60.7975 257.208 59.9122 257.923 58.8455 258.392C57.7788 258.861 56.6162 259.096 55.3575 259.096ZM67.0388 254.2V252.92L78.5908 242.392H79.9988L72.7348 249.112L72.0308 249.656L67.0388 254.2ZM66.2708 259V235.256H67.3268V259H66.2708ZM79.3908 259L71.8388 249.528L72.6068 248.792L80.7348 259H79.3908ZM97.3765 259.096C96.0112 259.096 94.9658 258.712 94.2405 257.944C93.5152 257.176 93.1525 256.141 93.1525 254.84V238.744H94.2085V254.68C94.2085 255.811 94.4858 256.675 95.0405 257.272C95.5952 257.869 96.4058 258.168 97.4725 258.168C98.5605 258.168 99.4565 257.837 100.161 257.176L100.705 257.944C100.299 258.328 99.7978 258.616 99.2005 258.808C98.6032 259 97.9952 259.096 97.3765 259.096ZM90.0165 243.32V242.392H99.6805V243.32H90.0165ZM113.236 242.264C114.601 242.264 115.774 242.531 116.756 243.064C117.758 243.597 118.537 244.387 119.092 245.432C119.646 246.456 119.924 247.725 119.924 249.24V259H118.868V249.304C118.868 247.32 118.366 245.816 117.364 244.792C116.361 243.768 114.953 243.256 113.14 243.256C111.753 243.256 110.558 243.533 109.556 244.088C108.553 244.643 107.785 245.432 107.252 246.456C106.718 247.48 106.452 248.675 106.452 250.04V259H105.396V235.256H106.452V247.064L106.292 246.776C106.804 245.389 107.646 244.291 108.82 243.48C110.014 242.669 111.486 242.264 113.236 242.264ZM133.361 259.096C131.719 259.096 130.268 258.744 129.009 258.04C127.751 257.315 126.759 256.312 126.033 255.032C125.308 253.752 124.945 252.301 124.945 250.68C124.945 249.037 125.276 247.587 125.937 246.328C126.62 245.069 127.548 244.077 128.721 243.352C129.916 242.627 131.26 242.264 132.753 242.264C134.225 242.264 135.548 242.616 136.721 243.32C137.916 244.024 138.844 245.005 139.505 246.264C140.188 247.501 140.529 248.931 140.529 250.552C140.529 250.595 140.529 250.648 140.529 250.712C140.529 250.755 140.529 250.797 140.529 250.84H125.649V249.976H139.953L139.537 250.488C139.537 249.101 139.239 247.864 138.641 246.776C138.065 245.667 137.265 244.803 136.241 244.184C135.217 243.544 134.055 243.224 132.753 243.224C131.452 243.224 130.289 243.544 129.265 244.184C128.241 244.803 127.431 245.667 126.833 246.776C126.257 247.864 125.969 249.112 125.969 250.52V250.712C125.969 252.163 126.289 253.453 126.929 254.584C127.569 255.693 128.444 256.568 129.553 257.208C130.663 257.827 131.932 258.136 133.361 258.136C134.449 258.136 135.473 257.933 136.433 257.528C137.415 257.123 138.225 256.504 138.865 255.672L139.537 256.376C138.791 257.272 137.873 257.955 136.785 258.424C135.719 258.872 134.577 259.096 133.361 259.096ZM157.833 259.096C156.468 259.096 155.188 258.893 153.993 258.488C152.799 258.061 151.892 257.528 151.273 256.888L151.785 256.056C152.404 256.611 153.247 257.101 154.313 257.528C155.38 257.955 156.564 258.168 157.865 258.168C159.721 258.168 161.055 257.848 161.865 257.208C162.697 256.568 163.113 255.736 163.113 254.712C163.113 253.965 162.911 253.379 162.505 252.952C162.1 252.525 161.567 252.195 160.905 251.96C160.244 251.725 159.508 251.544 158.697 251.416C157.908 251.267 157.108 251.107 156.297 250.936C155.487 250.744 154.751 250.499 154.089 250.2C153.428 249.88 152.895 249.443 152.489 248.888C152.084 248.333 151.881 247.597 151.881 246.68C151.881 245.891 152.095 245.165 152.521 244.504C152.969 243.843 153.641 243.309 154.537 242.904C155.433 242.477 156.575 242.264 157.961 242.264C158.985 242.264 160.009 242.424 161.033 242.744C162.079 243.043 162.911 243.448 163.529 243.96L162.985 244.792C162.324 244.259 161.545 243.864 160.649 243.608C159.775 243.352 158.868 243.224 157.929 243.224C156.201 243.224 154.943 243.555 154.153 244.216C153.364 244.877 152.969 245.688 152.969 246.648C152.969 247.416 153.172 248.035 153.577 248.504C153.983 248.952 154.516 249.293 155.177 249.528C155.839 249.763 156.564 249.955 157.353 250.104C158.164 250.253 158.964 250.413 159.753 250.584C160.564 250.755 161.3 250.989 161.961 251.288C162.623 251.587 163.156 252.003 163.561 252.536C163.967 253.069 164.169 253.795 164.169 254.712C164.169 255.565 163.924 256.333 163.433 257.016C162.964 257.677 162.26 258.189 161.321 258.552C160.404 258.915 159.241 259.096 157.833 259.096ZM175.137 259.096C173.579 259.096 172.182 258.744 170.945 258.04C169.729 257.315 168.758 256.312 168.033 255.032C167.329 253.752 166.977 252.301 166.977 250.68C166.977 249.037 167.329 247.587 168.033 246.328C168.758 245.069 169.729 244.077 170.945 243.352C172.182 242.627 173.579 242.264 175.137 242.264C176.694 242.264 178.091 242.627 179.329 243.352C180.566 244.077 181.537 245.069 182.241 246.328C182.945 247.587 183.297 249.037 183.297 250.68C183.297 252.301 182.945 253.752 182.241 255.032C181.537 256.312 180.566 257.315 179.329 258.04C178.091 258.744 176.694 259.096 175.137 259.096ZM175.137 258.136C176.502 258.136 177.718 257.827 178.785 257.208C179.873 256.568 180.715 255.683 181.312 254.552C181.931 253.421 182.241 252.131 182.241 250.68C182.241 249.208 181.931 247.917 181.312 246.808C180.715 245.677 179.873 244.803 178.785 244.184C177.718 243.565 176.502 243.256 175.137 243.256C173.793 243.256 172.587 243.565 171.521 244.184C170.454 244.803 169.601 245.677 168.961 246.808C168.342 247.917 168.033 249.208 168.033 250.68C168.033 252.131 168.342 253.421 168.961 254.552C169.601 255.683 170.454 256.568 171.521 257.208C172.587 257.827 173.793 258.136 175.137 258.136ZM196.361 242.264C197.726 242.264 198.899 242.531 199.881 243.064C200.883 243.597 201.662 244.387 202.217 245.432C202.771 246.456 203.049 247.725 203.049 249.24V259H201.993V249.304C201.993 247.32 201.491 245.816 200.489 244.792C199.486 243.768 198.078 243.256 196.265 243.256C194.878 243.256 193.683 243.533 192.681 244.088C191.678 244.643 190.91 245.432 190.377 246.456C189.843 247.48 189.577 248.675 189.577 250.04V259H188.521V242.392H189.545V247.064L189.417 246.776C189.929 245.389 190.771 244.291 191.945 243.48C193.139 242.669 194.611 242.264 196.361 242.264ZM216.742 265.304C215.249 265.304 213.83 265.059 212.486 264.568C211.164 264.099 210.097 263.448 209.286 262.616L209.894 261.816C210.748 262.627 211.761 263.245 212.934 263.672C214.108 264.12 215.366 264.344 216.71 264.344C219.036 264.344 220.753 263.789 221.862 262.68C222.972 261.592 223.526 259.875 223.526 257.528V252.504L223.846 250.328L223.558 248.152V242.392H224.582V257.4C224.582 260.109 223.932 262.104 222.63 263.384C221.329 264.664 219.366 265.304 216.742 265.304ZM216.294 258.424C214.737 258.424 213.34 258.083 212.102 257.4C210.865 256.696 209.884 255.736 209.158 254.52C208.433 253.304 208.07 251.907 208.07 250.328C208.07 248.749 208.433 247.352 209.158 246.136C209.884 244.92 210.865 243.971 212.102 243.288C213.34 242.605 214.737 242.264 216.294 242.264C217.83 242.264 219.196 242.605 220.39 243.288C221.585 243.949 222.534 244.888 223.238 246.104C223.942 247.299 224.294 248.707 224.294 250.328C224.294 251.949 223.942 253.368 223.238 254.584C222.534 255.8 221.585 256.749 220.39 257.432C219.196 258.093 217.83 258.424 216.294 258.424ZM216.326 257.464C217.734 257.464 218.972 257.165 220.038 256.568C221.126 255.971 221.98 255.128 222.598 254.04C223.217 252.952 223.526 251.715 223.526 250.328C223.526 248.92 223.217 247.693 222.598 246.648C221.98 245.581 221.126 244.749 220.038 244.152C218.972 243.555 217.734 243.256 216.326 243.256C214.961 243.256 213.734 243.555 212.646 244.152C211.558 244.749 210.694 245.581 210.054 246.648C209.436 247.693 209.126 248.92 209.126 250.328C209.126 251.715 209.436 252.952 210.054 254.04C210.694 255.128 211.558 255.971 212.646 256.568C213.734 257.165 214.961 257.464 216.326 257.464ZM244.283 259.096C242.917 259.096 241.872 258.712 241.147 257.944C240.421 257.176 240.059 256.141 240.059 254.84V238.744H241.115V254.68C241.115 255.811 241.392 256.675 241.947 257.272C242.501 257.869 243.312 258.168 244.379 258.168C245.467 258.168 246.363 257.837 247.067 257.176L247.611 257.944C247.205 258.328 246.704 258.616 246.107 258.808C245.509 259 244.901 259.096 244.283 259.096ZM236.923 243.32V242.392H246.587V243.32H236.923ZM252.302 259V242.392H253.358V259H252.302ZM252.814 238.04C252.537 238.04 252.291 237.933 252.078 237.72C251.865 237.507 251.758 237.272 251.758 237.016C251.758 236.717 251.865 236.472 252.078 236.28C252.291 236.067 252.537 235.96 252.814 235.96C253.113 235.96 253.358 236.067 253.55 236.28C253.763 236.472 253.87 236.707 253.87 236.984C253.87 237.261 253.763 237.507 253.55 237.72C253.358 237.933 253.113 238.04 252.814 238.04ZM264.97 259.096C263.605 259.096 262.56 258.712 261.834 257.944C261.109 257.176 260.746 256.141 260.746 254.84V238.744H261.802V254.68C261.802 255.811 262.08 256.675 262.634 257.272C263.189 257.869 264 258.168 265.066 258.168C266.154 258.168 267.05 257.837 267.754 257.176L268.298 257.944C267.893 258.328 267.392 258.616 266.794 258.808C266.197 259 265.589 259.096 264.97 259.096ZM257.61 243.32V242.392H267.274V243.32H257.61ZM272.99 259V235.256H274.046V259H272.99ZM287.674 259.096C286.031 259.096 284.58 258.744 283.322 258.04C282.063 257.315 281.071 256.312 280.346 255.032C279.62 253.752 279.258 252.301 279.258 250.68C279.258 249.037 279.588 247.587 280.25 246.328C280.932 245.069 281.86 244.077 283.034 243.352C284.228 242.627 285.572 242.264 287.066 242.264C288.538 242.264 289.86 242.616 291.034 243.32C292.228 244.024 293.156 245.005 293.818 246.264C294.5 247.501 294.842 248.931 294.842 250.552C294.842 250.595 294.842 250.648 294.842 250.712C294.842 250.755 294.842 250.797 294.842 250.84H279.962V249.976H294.266L293.85 250.488C293.85 249.101 293.551 247.864 292.954 246.776C292.378 245.667 291.578 244.803 290.554 244.184C289.53 243.544 288.367 243.224 287.066 243.224C285.764 243.224 284.602 243.544 283.578 244.184C282.554 244.803 281.743 245.667 281.146 246.776C280.57 247.864 280.282 249.112 280.282 250.52V250.712C280.282 252.163 280.602 253.453 281.242 254.584C281.882 255.693 282.756 256.568 283.866 257.208C284.975 257.827 286.244 258.136 287.674 258.136C288.762 258.136 289.786 257.933 290.746 257.528C291.727 257.123 292.538 256.504 293.178 255.672L293.85 256.376C293.103 257.272 292.186 257.955 291.098 258.424C290.031 258.872 288.89 259.096 287.674 259.096ZM312.658 259.096C311.292 259.096 310.247 258.712 309.522 257.944C308.796 257.176 308.434 256.141 308.434 254.84V238.744H309.49V254.68C309.49 255.811 309.767 256.675 310.322 257.272C310.876 257.869 311.687 258.168 312.754 258.168C313.842 258.168 314.738 257.837 315.442 257.176L315.986 257.944C315.58 258.328 315.079 258.616 314.482 258.808C313.884 259 313.276 259.096 312.658 259.096ZM305.298 243.32V242.392H314.962V243.32H305.298ZM326.324 259.096C324.767 259.096 323.369 258.744 322.132 258.04C320.916 257.315 319.945 256.312 319.22 255.032C318.516 253.752 318.164 252.301 318.164 250.68C318.164 249.037 318.516 247.587 319.22 246.328C319.945 245.069 320.916 244.077 322.132 243.352C323.369 242.627 324.767 242.264 326.324 242.264C327.881 242.264 329.279 242.627 330.516 243.352C331.753 244.077 332.724 245.069 333.428 246.328C334.132 247.587 334.484 249.037 334.484 250.68C334.484 252.301 334.132 253.752 333.428 255.032C332.724 256.312 331.753 257.315 330.516 258.04C329.279 258.744 327.881 259.096 326.324 259.096ZM326.324 258.136C327.689 258.136 328.905 257.827 329.972 257.208C331.06 256.568 331.903 255.683 332.5 254.552C333.119 253.421 333.428 252.131 333.428 250.68C333.428 249.208 333.119 247.917 332.5 246.808C331.903 245.677 331.06 244.803 329.972 244.184C328.905 243.565 327.689 243.256 326.324 243.256C324.98 243.256 323.775 243.565 322.708 244.184C321.641 244.803 320.788 245.677 320.148 246.808C319.529 247.917 319.22 249.208 319.22 250.68C319.22 252.131 319.529 253.421 320.148 254.552C320.788 255.683 321.641 256.568 322.708 257.208C323.775 257.827 324.98 258.136 326.324 258.136ZM73.795 298.096C72.2163 298.096 70.7977 297.744 69.539 297.04C68.3017 296.315 67.3203 295.323 66.595 294.064C65.891 292.784 65.539 291.323 65.539 289.68C65.539 288.037 65.891 286.587 66.595 285.328C67.3203 284.048 68.3017 283.056 69.539 282.352C70.7977 281.627 72.2163 281.264 73.795 281.264C75.0537 281.264 76.2163 281.509 77.283 282C78.3497 282.469 79.235 283.173 79.939 284.112L79.139 284.784C78.5203 283.909 77.7417 283.269 76.803 282.864C75.8857 282.459 74.883 282.256 73.795 282.256C72.4297 282.256 71.203 282.565 70.115 283.184C69.027 283.803 68.163 284.677 67.523 285.808C66.9043 286.917 66.595 288.208 66.595 289.68C66.595 291.152 66.9043 292.453 67.523 293.584C68.163 294.693 69.027 295.568 70.115 296.208C71.203 296.827 72.4297 297.136 73.795 297.136C74.883 297.136 75.8857 296.933 76.803 296.528C77.7417 296.101 78.5203 295.461 79.139 294.608L79.939 295.248C79.235 296.208 78.3497 296.923 77.283 297.392C76.2163 297.861 75.0537 298.096 73.795 298.096ZM92.5483 281.264C93.9136 281.264 95.0869 281.531 96.0683 282.064C97.0709 282.597 97.8496 283.387 98.4043 284.432C98.9589 285.456 99.2362 286.725 99.2362 288.24V298H98.1803V288.304C98.1803 286.32 97.6789 284.816 96.6763 283.792C95.6736 282.768 94.2656 282.256 92.4523 282.256C91.0656 282.256 89.8709 282.533 88.8683 283.088C87.8656 283.643 87.0976 284.432 86.5643 285.456C86.0309 286.48 85.7643 287.675 85.7643 289.04V298H84.7083V274.256H85.7643V286.064L85.6043 285.776C86.1163 284.389 86.9589 283.291 88.1323 282.48C89.3269 281.669 90.7989 281.264 92.5483 281.264ZM116.706 298V294.128L116.674 293.552V287.248C116.674 285.605 116.236 284.357 115.362 283.504C114.487 282.651 113.218 282.224 111.554 282.224C110.338 282.224 109.228 282.437 108.226 282.864C107.223 283.269 106.359 283.803 105.634 284.464L105.058 283.696C105.847 282.949 106.818 282.363 107.97 281.936C109.122 281.488 110.327 281.264 111.586 281.264C113.57 281.264 115.084 281.776 116.13 282.8C117.196 283.803 117.73 285.285 117.73 287.248V298H116.706ZM110.53 298.096C109.271 298.096 108.194 297.904 107.298 297.52C106.423 297.136 105.751 296.592 105.282 295.888C104.812 295.163 104.578 294.341 104.578 293.424C104.578 292.613 104.77 291.867 105.154 291.184C105.538 290.48 106.167 289.925 107.042 289.52C107.938 289.093 109.132 288.88 110.626 288.88H117.058V289.744H110.626C108.812 289.744 107.522 290.085 106.754 290.768C106.007 291.451 105.634 292.315 105.634 293.36C105.634 294.533 106.071 295.472 106.946 296.176C107.82 296.859 109.036 297.2 110.594 297.2C112.13 297.2 113.399 296.859 114.402 296.176C115.404 295.472 116.162 294.48 116.674 293.2L117.026 293.904C116.599 295.163 115.831 296.176 114.722 296.944C113.612 297.712 112.215 298.096 110.53 298.096ZM132.486 281.264C133.851 281.264 135.024 281.531 136.006 282.064C137.008 282.597 137.787 283.387 138.342 284.432C138.896 285.456 139.174 286.725 139.174 288.24V298H138.118V288.304C138.118 286.32 137.616 284.816 136.614 283.792C135.611 282.768 134.203 282.256 132.39 282.256C131.003 282.256 129.808 282.533 128.806 283.088C127.803 283.643 127.035 284.432 126.502 285.456C125.968 286.48 125.702 287.675 125.702 289.04V298H124.646V281.392H125.67V286.064L125.542 285.776C126.054 284.389 126.896 283.291 128.07 282.48C129.264 281.669 130.736 281.264 132.486 281.264ZM152.867 304.304C151.374 304.304 149.955 304.059 148.611 303.568C147.289 303.099 146.222 302.448 145.411 301.616L146.019 300.816C146.873 301.627 147.886 302.245 149.059 302.672C150.233 303.12 151.491 303.344 152.835 303.344C155.161 303.344 156.878 302.789 157.987 301.68C159.097 300.592 159.651 298.875 159.651 296.528V291.504L159.971 289.328L159.683 287.152V281.392H160.707V296.4C160.707 299.109 160.057 301.104 158.755 302.384C157.454 303.664 155.491 304.304 152.867 304.304ZM152.419 297.424C150.862 297.424 149.465 297.083 148.227 296.4C146.99 295.696 146.009 294.736 145.283 293.52C144.558 292.304 144.195 290.907 144.195 289.328C144.195 287.749 144.558 286.352 145.283 285.136C146.009 283.92 146.99 282.971 148.227 282.288C149.465 281.605 150.862 281.264 152.419 281.264C153.955 281.264 155.321 281.605 156.515 282.288C157.71 282.949 158.659 283.888 159.363 285.104C160.067 286.299 160.419 287.707 160.419 289.328C160.419 290.949 160.067 292.368 159.363 293.584C158.659 294.8 157.71 295.749 156.515 296.432C155.321 297.093 153.955 297.424 152.419 297.424ZM152.451 296.464C153.859 296.464 155.097 296.165 156.163 295.568C157.251 294.971 158.105 294.128 158.723 293.04C159.342 291.952 159.651 290.715 159.651 289.328C159.651 287.92 159.342 286.693 158.723 285.648C158.105 284.581 157.251 283.749 156.163 283.152C155.097 282.555 153.859 282.256 152.451 282.256C151.086 282.256 149.859 282.555 148.771 283.152C147.683 283.749 146.819 284.581 146.179 285.648C145.561 286.693 145.251 287.92 145.251 289.328C145.251 290.715 145.561 291.952 146.179 293.04C146.819 294.128 147.683 294.971 148.771 295.568C149.859 296.165 151.086 296.464 152.451 296.464ZM174.33 298.096C172.687 298.096 171.237 297.744 169.978 297.04C168.719 296.315 167.727 295.312 167.002 294.032C166.277 292.752 165.914 291.301 165.914 289.68C165.914 288.037 166.245 286.587 166.906 285.328C167.589 284.069 168.517 283.077 169.69 282.352C170.885 281.627 172.229 281.264 173.722 281.264C175.194 281.264 176.517 281.616 177.69 282.32C178.885 283.024 179.813 284.005 180.474 285.264C181.157 286.501 181.498 287.931 181.498 289.552C181.498 289.595 181.498 289.648 181.498 289.712C181.498 289.755 181.498 289.797 181.498 289.84H166.618V288.976H180.922L180.506 289.488C180.506 288.101 180.207 286.864 179.61 285.776C179.034 284.667 178.234 283.803 177.21 283.184C176.186 282.544 175.023 282.224 173.722 282.224C172.421 282.224 171.258 282.544 170.234 283.184C169.21 283.803 168.399 284.667 167.802 285.776C167.226 286.864 166.938 288.112 166.938 289.52V289.712C166.938 291.163 167.258 292.453 167.898 293.584C168.538 294.693 169.413 295.568 170.522 296.208C171.631 296.827 172.901 297.136 174.33 297.136C175.418 297.136 176.442 296.933 177.402 296.528C178.383 296.123 179.194 295.504 179.834 294.672L180.506 295.376C179.759 296.272 178.842 296.955 177.754 297.424C176.687 297.872 175.546 298.096 174.33 298.096ZM198.802 298.096C197.437 298.096 196.157 297.893 194.962 297.488C193.767 297.061 192.861 296.528 192.242 295.888L192.754 295.056C193.373 295.611 194.215 296.101 195.282 296.528C196.349 296.955 197.533 297.168 198.834 297.168C200.69 297.168 202.023 296.848 202.834 296.208C203.666 295.568 204.082 294.736 204.082 293.712C204.082 292.965 203.879 292.379 203.474 291.952C203.069 291.525 202.535 291.195 201.874 290.96C201.213 290.725 200.477 290.544 199.666 290.416C198.877 290.267 198.077 290.107 197.266 289.936C196.455 289.744 195.719 289.499 195.058 289.2C194.397 288.88 193.863 288.443 193.458 287.888C193.053 287.333 192.85 286.597 192.85 285.68C192.85 284.891 193.063 284.165 193.49 283.504C193.938 282.843 194.61 282.309 195.506 281.904C196.402 281.477 197.543 281.264 198.93 281.264C199.954 281.264 200.978 281.424 202.002 281.744C203.047 282.043 203.879 282.448 204.498 282.96L203.954 283.792C203.293 283.259 202.514 282.864 201.618 282.608C200.743 282.352 199.837 282.224 198.898 282.224C197.17 282.224 195.911 282.555 195.122 283.216C194.333 283.877 193.938 284.688 193.938 285.648C193.938 286.416 194.141 287.035 194.546 287.504C194.951 287.952 195.485 288.293 196.146 288.528C196.807 288.763 197.533 288.955 198.322 289.104C199.133 289.253 199.933 289.413 200.722 289.584C201.533 289.755 202.269 289.989 202.93 290.288C203.591 290.587 204.125 291.003 204.53 291.536C204.935 292.069 205.138 292.795 205.138 293.712C205.138 294.565 204.893 295.333 204.402 296.016C203.933 296.677 203.229 297.189 202.29 297.552C201.373 297.915 200.21 298.096 198.802 298.096ZM216.105 298.096C214.548 298.096 213.151 297.744 211.913 297.04C210.697 296.315 209.727 295.312 209.001 294.032C208.297 292.752 207.945 291.301 207.945 289.68C207.945 288.037 208.297 286.587 209.001 285.328C209.727 284.069 210.697 283.077 211.913 282.352C213.151 281.627 214.548 281.264 216.105 281.264C217.663 281.264 219.06 281.627 220.297 282.352C221.535 283.077 222.505 284.069 223.209 285.328C223.913 286.587 224.265 288.037 224.265 289.68C224.265 291.301 223.913 292.752 223.209 294.032C222.505 295.312 221.535 296.315 220.297 297.04C219.06 297.744 217.663 298.096 216.105 298.096ZM216.105 297.136C217.471 297.136 218.687 296.827 219.753 296.208C220.841 295.568 221.684 294.683 222.281 293.552C222.9 292.421 223.209 291.131 223.209 289.68C223.209 288.208 222.9 286.917 222.281 285.808C221.684 284.677 220.841 283.803 219.753 283.184C218.687 282.565 217.471 282.256 216.105 282.256C214.761 282.256 213.556 282.565 212.489 283.184C211.423 283.803 210.569 284.677 209.929 285.808C209.311 286.917 209.001 288.208 209.001 289.68C209.001 291.131 209.311 292.421 209.929 293.552C210.569 294.683 211.423 295.568 212.489 296.208C213.556 296.827 214.761 297.136 216.105 297.136ZM237.33 281.264C238.695 281.264 239.868 281.531 240.85 282.064C241.852 282.597 242.631 283.387 243.186 284.432C243.74 285.456 244.017 286.725 244.017 288.24V298H242.962V288.304C242.962 286.32 242.46 284.816 241.458 283.792C240.455 282.768 239.047 282.256 237.234 282.256C235.847 282.256 234.652 282.533 233.65 283.088C232.647 283.643 231.879 284.432 231.346 285.456C230.812 286.48 230.546 287.675 230.546 289.04V298H229.49V281.392H230.514V286.064L230.386 285.776C230.898 284.389 231.74 283.291 232.914 282.48C234.108 281.669 235.58 281.264 237.33 281.264ZM257.711 304.304C256.218 304.304 254.799 304.059 253.455 303.568C252.132 303.099 251.066 302.448 250.255 301.616L250.863 300.816C251.716 301.627 252.73 302.245 253.903 302.672C255.076 303.12 256.335 303.344 257.679 303.344C260.004 303.344 261.722 302.789 262.831 301.68C263.94 300.592 264.495 298.875 264.495 296.528V291.504L264.815 289.328L264.527 287.152V281.392H265.551V296.4C265.551 299.109 264.9 301.104 263.599 302.384C262.298 303.664 260.335 304.304 257.711 304.304ZM257.263 297.424C255.706 297.424 254.308 297.083 253.071 296.4C251.834 295.696 250.852 294.736 250.127 293.52C249.402 292.304 249.039 290.907 249.039 289.328C249.039 287.749 249.402 286.352 250.127 285.136C250.852 283.92 251.834 282.971 253.071 282.288C254.308 281.605 255.706 281.264 257.263 281.264C258.799 281.264 260.164 281.605 261.359 282.288C262.554 282.949 263.503 283.888 264.207 285.104C264.911 286.299 265.263 287.707 265.263 289.328C265.263 290.949 264.911 292.368 264.207 293.584C263.503 294.8 262.554 295.749 261.359 296.432C260.164 297.093 258.799 297.424 257.263 297.424ZM257.295 296.464C258.703 296.464 259.94 296.165 261.007 295.568C262.095 294.971 262.948 294.128 263.567 293.04C264.186 291.952 264.495 290.715 264.495 289.328C264.495 287.92 264.186 286.693 263.567 285.648C262.948 284.581 262.095 283.749 261.007 283.152C259.94 282.555 258.703 282.256 257.295 282.256C255.93 282.256 254.703 282.555 253.615 283.152C252.527 283.749 251.663 284.581 251.023 285.648C250.404 286.693 250.095 287.92 250.095 289.328C250.095 290.715 250.404 291.952 251.023 293.04C251.663 294.128 252.527 294.971 253.615 295.568C254.703 296.165 255.93 296.464 257.295 296.464ZM276.646 298.096C275.28 298.096 274 297.893 272.806 297.488C271.611 297.061 270.704 296.528 270.086 295.888L270.598 295.056C271.216 295.611 272.059 296.101 273.126 296.528C274.192 296.955 275.376 297.168 276.678 297.168C278.534 297.168 279.867 296.848 280.678 296.208C281.51 295.568 281.926 294.736 281.926 293.712C281.926 292.965 281.723 292.379 281.318 291.952C280.912 291.525 280.379 291.195 279.718 290.96C279.056 290.725 278.32 290.544 277.51 290.416C276.72 290.267 275.92 290.107 275.11 289.936C274.299 289.744 273.563 289.499 272.902 289.2C272.24 288.88 271.707 288.443 271.302 287.888C270.896 287.333 270.694 286.597 270.694 285.68C270.694 284.891 270.907 284.165 271.334 283.504C271.782 282.843 272.454 282.309 273.35 281.904C274.246 281.477 275.387 281.264 276.774 281.264C277.798 281.264 278.822 281.424 279.846 281.744C280.891 282.043 281.723 282.448 282.342 282.96L281.798 283.792C281.136 283.259 280.358 282.864 279.462 282.608C278.587 282.352 277.68 282.224 276.742 282.224C275.014 282.224 273.755 282.555 272.966 283.216C272.176 283.877 271.782 284.688 271.782 285.648C271.782 286.416 271.984 287.035 272.39 287.504C272.795 287.952 273.328 288.293 273.99 288.528C274.651 288.763 275.376 288.955 276.166 289.104C276.976 289.253 277.776 289.413 278.566 289.584C279.376 289.755 280.112 289.989 280.774 290.288C281.435 290.587 281.968 291.003 282.374 291.536C282.779 292.069 282.982 292.795 282.982 293.712C282.982 294.565 282.736 295.333 282.246 296.016C281.776 296.677 281.072 297.189 280.134 297.552C279.216 297.915 278.054 298.096 276.646 298.096Z" fill="white"/>
</svg>
