<?xml version="1.0" encoding="utf-8"?>
<!-- Generator: Adobe Illustrator 16.0.0, SVG Export Plug-In . SVG Version: 6.00 Build 0)  -->
<!DOCTYPE svg PUBLIC "-//W3C//DTD SVG 1.1//EN" "http://www.w3.org/Graphics/SVG/1.1/DTD/svg11.dtd">
<svg version="1.1" id="Layer_1" xmlns="http://www.w3.org/2000/svg" xmlns:xlink="http://www.w3.org/1999/xlink" x="0px" y="0px"
	 width="170px" height="80px" viewBox="0 0 170 80" enable-background="new 0 0 170 80" xml:space="preserve">
<path fill-rule="evenodd" clip-rule="evenodd" d="M13.417,62.479c-1.291,2.118-2.581,4.22-3.854,6.333
	c-1.109,1.839-1.275,3.868-1.244,5.959c0.016,1.02-0.071,2.071-0.333,3.05c-0.137,0.511-0.751,0.896-1.149,1.338
	c-0.365-0.415-0.967-0.787-1.054-1.254c-0.376-2.02-0.792-4.061-0.847-6.103C4.712,63.367,4.668,54.927,4.456,46.49
	c-0.195-7.761-0.429-15.522-0.821-23.273c-0.255-5.07-0.796-10.126-1.26-15.183c-0.22-2.395-0.56-4.778-0.717-7.193
	c0.209,0.863,0.458,1.719,0.622,2.59c0.472,2.508,0.966,5.014,1.35,7.537c0.73,4.808,1.419,9.623,2.066,14.443
	c0.25,1.859,0.35,3.739,0.501,5.61C6.6,35.98,7.003,40.938,7.387,45.899c0.093,1.206,0.108,2.418,0.166,3.628
	c0.194,4.081,0.395,8.164,0.584,12.246c0.072,1.525,0.118,3.053,0.189,4.578c0.011,0.234,0.098,0.466,0.215,0.996
	c0.602-1.061,1.056-1.897,1.542-2.713c1.896-3.182,4.018-6.188,6.851-8.625c1.621-1.394,3.196-2.862,4.932-4.101
	c2.105-1.501,4.383-2.751,6.965-3.274c1.015-0.205,2.071-0.129,2.679,0.813c0.564,0.877,0.359,1.832-0.208,2.717
	c-1.5,2.347-3.532,4.169-5.825,5.659c-2.604,1.69-5.279,3.289-8.297,4.191c-0.341,0.102-0.621,0.412-1.171,0.794
	c1.879,0.638,3.484,1.3,5.151,1.726c5.315,1.358,10.675,2.507,16.15,3.033c4.482,0.431,8.959,0.917,13.446,1.299
	c4.56,0.388,9.126,0.71,13.693,1.001c4.51,0.288,9.025,0.494,13.537,0.753c6.216,0.354,12.432,0.725,18.646,1.09
	c0.463,0.026,0.926,0.065,1.387,0.072c6.979,0.083,13.955,0.192,20.932,0.227c2.309,0.012,4.637-0.014,6.922-0.29
	c4.791-0.582,9.607-1.108,14.322-2.088c5.863-1.216,11.584-3.035,17.184-5.187c0.791-0.303,1.584-0.656,2.283-1.125
	c1.121-0.753,2.332-0.499,3.514-0.454c0.838,0.03,1.254,1.256,0.91,2.221c-0.605,1.699-2.006,2.714-3.387,3.578
	c-2.031,1.271-4.17,2.475-6.416,3.277c-3.609,1.288-7.316,2.324-11.031,3.272c-2.717,0.693-5.502,1.138-8.273,1.569
	c-1.961,0.306-3.951,0.487-5.936,0.584c-3.691,0.183-7.389,0.362-11.082,0.359c-3.699-0.004-7.4-0.174-11.094-0.376
	c-4.33-0.236-8.658-0.531-12.979-0.899c-4.855-0.414-9.701-0.925-14.549-1.413c-4.945-0.499-9.89-0.995-14.83-1.544
	c-3.312-0.366-6.612-0.836-9.921-1.235c-2.962-0.355-5.948-0.572-8.894-1.037c-4.413-0.698-8.831-1.417-13.189-2.389
	c-4.421-0.987-8.791-2.228-13.144-3.491c-1.651-0.48-3.201-1.321-4.783-2.029C14.246,63.165,13.972,62.884,13.417,62.479z
	 M15.079,60.431c0.083,0.131,0.165,0.259,0.247,0.388c0.323-0.104,0.66-0.178,0.965-0.318c2.083-0.966,4.168-1.93,6.237-2.926
	c2.849-1.371,5.388-3.149,7.262-5.747c0.195-0.271,0.185-0.687,0.269-1.035c-0.33,0.027-0.692-0.027-0.986,0.089
	c-3.014,1.199-5.932,2.591-8.438,4.687C18.747,57.146,16.927,58.806,15.079,60.431z"/>
<path fill-rule="evenodd" clip-rule="evenodd" d="M44.396,2.031c0.101,5.883,0.135,11.938,0.33,17.987
	c0.165,5.122,0.5,10.239,0.786,15.357c0.174,3.122,0.36,6.244,0.605,9.362c0.337,4.284,0.71,8.565,1.123,12.844
	c0.106,1.1,0.261,2.246,0.681,3.25c0.446,1.065,1.565,1.153,2.579,0.906c2.712-0.661,5.383-1.511,8.117-2.063
	c4.254-0.862,8.57-1.558,12.916-1.288c4.853,0.301,9.686,0.931,14.529,1.402c0.602,0.057,1.209,0.048,1.816,0.047
	c10.369-0.023,20.742,0.034,31.111-0.114c5.367-0.078,10.75-0.445,16.008-1.606c4.881-1.075,9.719-2.358,14.531-3.706
	c2.885-0.809,5.723-1.824,8.51-2.928c1.77-0.699,3.41-1.723,5.102-2.613c1.166-0.615,2.395-0.871,3.709-0.748
	c1.053,0.099,1.303,0.634,0.795,1.585c-1.051,1.97-2.84,3.093-4.682,4.156c-3.898,2.252-8.23,3.424-12.498,4.604
	c-6.383,1.767-12.877,3.092-19.492,3.797c-8.184,0.873-16.359,0.536-24.545,0.234c-2.562-0.096-5.131-0.049-7.695-0.131
	c-4.057-0.129-8.121-0.174-12.16-0.514c-3.783-0.318-7.529-1.061-11.308-1.457c-3.353-0.354-6.722-0.647-10.103-0.179
	c-2.387,0.33-4.799,0.506-7.173,0.905c-2.366,0.398-4.7,0.987-7.047,1.497c-1.979,0.429-3.663-0.124-4.63-1.758
	c-0.544-0.922-0.916-2.001-1.125-3.055c-0.385-1.945-0.689-3.918-0.856-5.895c-0.249-2.939-0.431-5.89-0.497-8.839
	c-0.181-7.931-0.375-15.865-0.386-23.797c-0.007-4.59,0.308-9.183,0.525-13.771C44.031,4.276,44.267,3.058,44.396,2.031z"/>
</svg>
